<svg width="980" height="551" xmlns="http://www.w3.org/2000/svg" xmlns:xlink="http://www.w3.org/1999/xlink">
<path fill="#ff595e" d="M 604.28 357.64 Q 604.28 357.64 604.29 357.64 604.29 357.64 604.30 357.64 604.30 357.64 604.29 357.64 Z" data-drauu_index="0"></path><path fill="#ff595e" d="M 585.46 359.98 Q 585.46 359.98 587.54 359.48 589.62 358.99 596.33 358.86 603.05 358.73 610.37 358.58 617.68 358.42 624.92 358.36 632.15 358.29 638.81 358.26 645.46 358.23 651.71 358.40 657.96 358.56 663.50 359.14 669.04 359.73 673.70 360.54 678.35 361.34 681.95 362.09 685.55 362.83 688.35 363.46 691.16 364.09 693.54 364.62 695.92 365.15 698.00 365.54 700.08 365.94 701.82 366.16 703.56 366.39 705.29 366.48 707.02 366.57 708.77 366.61 710.53 366.66 712.38 366.67 714.23 366.69 716.28 366.70 718.33 366.71 720.47 366.71 722.62 366.71 725.19 366.76 727.77 366.81 730.76 366.95 733.74 367.08 736.61 367.29 739.48 367.50 741.95 367.74 744.42 367.98 746.53 368.15 748.64 368.31 750.20 368.35 751.76 368.39 753.52 368.11 755.28 367.83 758.37 367.02 761.46 366.22 766.10 364.89 770.73 363.57 776.44 362.04 782.15 360.51 788.07 359.15 793.98 357.80 799.08 356.85 804.18 355.91 808.02 355.42 811.87 354.93 814.70 354.72 817.54 354.51 819.56 354.45 821.58 354.39 823.04 354.50 824.50 354.60 825.57 354.81 826.65 355.02 827.52 355.24 828.39 355.45 829.15 355.67 829.90 355.89 830.60 356.11 831.31 356.33 831.97 356.54 832.64 356.76 833.30 356.97 833.95 357.19 834.60 357.40 835.25 357.62 835.90 357.78 836.55 357.93 837.26 358.01 837.97 358.09 838.82 358.12 839.68 358.16 840.72 358.17 841.75 358.19 842.91 358.19 844.06 358.20 845.27 358.17 846.48 358.14 847.75 358.02 849.01 357.90 850.35 357.77 851.68 357.65 853.00 357.59 854.32 357.53 855.46 357.51 856.60 357.48 857.43 357.49 858.25 357.50 859.74 357.59 861.24 357.68 861.25 357.69 861.25 357.69 861.25 357.69 861.26 357.69 859.76 358.56 858.27 359.43 857.46 359.46 856.65 359.48 855.53 359.51 854.41 359.53 853.14 359.58 851.87 359.64 850.53 359.76 849.20 359.89 847.86 360.01 846.53 360.13 845.29 360.17 844.05 360.20 842.88 360.19 841.72 360.19 840.66 360.17 839.60 360.16 838.67 360.12 837.74 360.08 836.91 359.98 836.07 359.88 835.35 359.70 834.62 359.52 833.97 359.30 833.33 359.09 832.68 358.87 832.03 358.66 831.37 358.45 830.71 358.24 830.03 358.02 829.35 357.81 828.62 357.60 827.90 357.39 827.08 357.19 826.26 356.98 825.31 356.79 824.35 356.60 822.99 356.50 821.64 356.39 819.66 356.45 817.69 356.50 814.90 356.71 812.12 356.91 808.33 357.39 804.54 357.87 799.48 358.81 794.43 359.75 788.55 361.09 782.67 362.44 776.97 363.96 771.28 365.49 766.62 366.82 761.97 368.15 758.78 368.98 755.58 369.81 753.65 370.10 751.72 370.39 750.10 370.35 748.48 370.31 746.35 370.14 744.22 369.97 741.78 369.73 739.34 369.49 736.49 369.29 733.65 369.08 730.69 368.95 727.73 368.81 725.17 368.76 722.61 368.71 720.47 368.71 718.32 368.71 716.27 368.70 714.22 368.69 712.35 368.67 710.48 368.65 708.69 368.61 706.91 368.57 705.11 368.47 703.31 368.37 701.50 368.14 699.70 367.90 697.60 367.50 695.49 367.10 693.11 366.57 690.72 366.05 687.93 365.42 685.14 364.79 681.58 364.05 678.01 363.31 673.42 362.52 668.83 361.72 663.37 361.14 657.90 360.56 651.69 360.40 645.47 360.23 638.82 360.26 632.17 360.29 624.95 360.36 617.73 360.42 610.41 360.58 603.09 360.73 596.35 360.86 589.62 360.99 587.54 360.49 585.46 360.00 585.46 359.99 Z" data-drauu_index="1"></path>
</svg>